<svg id="visual" viewBox="0 0 1080 540" width="1080" height="540" xmlns="http://www.w3.org/2000/svg" xmlns:xlink="http://www.w3.org/1999/xlink" version="1.1"><path d="M0 152L120 152L120 120L240 120L240 179L360 179L360 98L480 98L480 120L600 120L600 152L720 152L720 185L840 185L840 174L960 174L960 120L1080 120L1080 179L1080 0L1080 0L960 0L960 0L840 0L840 0L720 0L720 0L600 0L600 0L480 0L480 0L360 0L360 0L240 0L240 0L120 0L120 0L0 0Z" fill="#9cd2d3"></path><path d="M0 201L120 201L120 168L240 168L240 260L360 260L360 163L480 163L480 179L600 179L600 239L720 239L720 239L840 239L840 260L960 260L960 190L1080 190L1080 239L1080 177L1080 118L960 118L960 172L840 172L840 183L720 183L720 150L600 150L600 118L480 118L480 96L360 96L360 177L240 177L240 118L120 118L120 150L0 150Z" fill="#86c7cc"></path><path d="M0 255L120 255L120 239L240 239L240 303L360 303L360 217L480 217L480 249L600 249L600 298L720 298L720 309L840 309L840 303L960 303L960 255L1080 255L1080 282L1080 237L1080 188L960 188L960 258L840 258L840 237L720 237L720 237L600 237L600 177L480 177L480 161L360 161L360 258L240 258L240 166L120 166L120 199L0 199Z" fill="#70bcc5"></path><path d="M0 320L120 320L120 298L240 298L240 368L360 368L360 271L480 271L480 293L600 293L600 352L720 352L720 363L840 363L840 347L960 347L960 309L1080 309L1080 330L1080 280L1080 253L960 253L960 301L840 301L840 307L720 307L720 296L600 296L600 247L480 247L480 215L360 215L360 301L240 301L240 237L120 237L120 253L0 253Z" fill="#57b0bf"></path><path d="M0 428L120 428L120 433L240 433L240 460L360 460L360 428L480 428L480 428L600 428L600 482L720 482L720 482L840 482L840 444L960 444L960 455L1080 455L1080 438L1080 328L1080 307L960 307L960 345L840 345L840 361L720 361L720 350L600 350L600 291L480 291L480 269L360 269L360 366L240 366L240 296L120 296L120 318L0 318Z" fill="#3ba5ba"></path><path d="M0 541L120 541L120 541L240 541L240 541L360 541L360 541L480 541L480 541L600 541L600 541L720 541L720 541L840 541L840 541L960 541L960 541L1080 541L1080 541L1080 436L1080 453L960 453L960 442L840 442L840 480L720 480L720 480L600 480L600 426L480 426L480 426L360 426L360 458L240 458L240 431L120 431L120 426L0 426Z" fill="#0799b6"></path></svg>