<svg id="svgQrWrapper" viewBox="0 0 300 300" xmlns="http://www.w3.org/2000/svg" xmlns:xlink="http://www.w3.org/1999/xlink" style="width: 100%; height: 100%; background-color: transparent;"><svg fill="#121212" xmlns="http://www.w3.org/2000/svg" width="300" height="300" viewBox="0 0 300 300"><path d="M258.91.24H41.09A6.19,6.19,0,0,0,34.9,6.43v279A6.15,6.15,0,0,0,41,291.57h5.71c0-.09,0-.18,0-.28V241.51a10.84,10.84,0,0,1,.2-2.07H46.1c-3.26,0-5.9-1.89-5.9-5.16V11.64a5.91,5.91,0,0,1,5.91-5.91H253.82a5.91,5.91,0,0,1,5.91,5.91V234.28a5.91,5.91,0,0,1-3,5.16H117.56a10.84,10.84,0,0,1,.2,2.07v49.78c0,.1,0,.19,0,.28H259a6.15,6.15,0,0,0,6.12-6.12V251.67h0V6.43A6.19,6.19,0,0,0,258.91.24Z"/><polygon points="73.63 279.03 92.53 279.03 92.53 253.96 73.63 253.77 73.63 279.03"/><path d="M83.13,280.64a2.56,2.56,0,0,0-2.57,2.57,2.57,2.57,0,1,0,2.57-2.57Z"/><path d="M79.9,251.3h6.45a1.8,1.8,0,0,0,1.81-1.8,1.87,1.87,0,0,0-1.81-1.8H80a1.8,1.8,0,1,0-.09,3.6Z"/><path d="M106.12,233.82H58.36a8.71,8.71,0,0,0-8.7,8.7v47.76a8.71,8.71,0,0,0,8.7,8.7h47.76a8.71,8.71,0,0,0,8.7-8.7V242.52A8.71,8.71,0,0,0,106.12,233.82ZM95.47,261.65v21.84a3.91,3.91,0,0,1-3.89,3.89H74.77a3.91,3.91,0,0,1-3.89-3.89V249.31a3.91,3.91,0,0,1,3.89-3.89H91.58a4,4,0,0,1,3.89,3.89Z"/><g transform="translate(46.5, 18)scale(0.69)" fill="none"><svg width="300" height="300"><style>.background-color{ fill: transparent; }.dot-color{ fill: #121212; }.corners-square-color-0-0{ fill: #0c0c0c; }.corners-dot-color-0-0{ fill: #0c0c0c; }.corners-square-color-1-0{ fill: #0c0c0c; }.corners-dot-color-1-0{ fill: #0c0c0c; }.corners-square-color-0-1{ fill: #0c0c0c; }.corners-dot-color-0-1{ fill: #0c0c0c; }</style><defs/><g class="dot-color"><path d="M 5 95v 5a 5 5, 0, 0, 0, 5 5h 5v -5a 5 5, 0, 0, 0, -5 -5" transform="rotate(90,10,100)"/><path d="M 5 115v 10h 10v -5a 5 5, 0, 0, 0, -5 -5" transform="rotate(-90,10,120)"/><rect x="5" y="125" width="10" height="10" transform="rotate(0,10,130)"/><path d="M 5 145v 10h 10v -5a 5 5, 0, 0, 0, -5 -5" transform="rotate(-90,10,150)"/><path d="M 5 175v 10h 10v -5a 5 5, 0, 0, 0, -5 -5" transform="rotate(-90,10,180)"/><rect x="5" y="185" width="10" height="10" transform="rotate(0,10,190)"/><path d="M 5 195v 10h 10v -5a 5 5, 0, 0, 0, -5 -5" transform="rotate(90,10,200)"/><rect x="15" y="115" width="10" height="10" transform="rotate(0,20,120)"/><rect x="15" y="125" width="10" height="10" transform="rotate(0,20,130)"/><rect x="15" y="135" width="10" height="10" transform="rotate(0,20,140)"/><rect x="15" y="145" width="10" height="10" transform="rotate(0,20,150)"/><rect x="15" y="155" width="10" height="10" transform="rotate(0,20,160)"/><path d="M 15 165v 10h 10v -5a 5 5, 0, 0, 0, -5 -5" transform="rotate(90,20,170)"/><path d="M 15 205v 10h 10v -5a 5 5, 0, 0, 0, -5 -5" transform="rotate(-90,20,210)"/><path d="M 25 85v 10h 10v -5a 5 5, 0, 0, 0, -5 -5" transform="rotate(-90,30,90)"/><rect x="25" y="95" width="10" height="10" transform="rotate(0,30,100)"/><path d="M 25 105v 10h 10v -5a 5 5, 0, 0, 0, -5 -5" transform="rotate(90,30,110)"/><rect x="25" y="155" width="10" height="10" transform="rotate(0,30,160)"/><path d="M 25 175v 10h 10v -5a 5 5, 0, 0, 0, -5 -5" transform="rotate(-90,30,180)"/><rect x="25" y="185" width="10" height="10" transform="rotate(0,30,190)"/><rect x="25" y="195" width="10" height="10" transform="rotate(0,30,200)"/><path d="M 25 205v 10h 10v -5a 5 5, 0, 0, 0, -5 -5" transform="rotate(90,30,210)"/><path d="M 35 115v 5a 5 5, 0, 0, 0, 5 5h 5v -5a 5 5, 0, 0, 0, -5 -5" transform="rotate(90,40,120)"/><path d="M 35 155v 10h 10v -5a 5 5, 0, 0, 0, -5 -5" transform="rotate(90,40,160)"/><rect x="35" y="185" width="10" height="10" transform="rotate(0,40,190)"/><path d="M 35 195v 10h 10v -5a 5 5, 0, 0, 0, -5 -5" transform="rotate(90,40,200)"/><path d="M 45 85v 10h 10v -5a 5 5, 0, 0, 0, -5 -5" transform="rotate(-90,50,90)"/><rect x="45" y="95" width="10" height="10" transform="rotate(0,50,100)"/><path d="M 45 105v 10h 10v -5a 5 5, 0, 0, 0, -5 -5" transform="rotate(90,50,110)"/><path d="M 45 165v 10h 10v -5a 5 5, 0, 0, 0, -5 -5" transform="rotate(-90,50,170)"/><path d="M 45 205v 5a 5 5, 0, 0, 0, 5 5h 5v -5a 5 5, 0, 0, 0, -5 -5" transform="rotate(90,50,210)"/><rect x="55" y="85" width="10" height="10" transform="rotate(0,60,90)"/><path d="M 55 95v 10h 10v -5a 5 5, 0, 0, 0, -5 -5" transform="rotate(90,60,100)"/><path d="M 55 125v 10h 10v -5a 5 5, 0, 0, 0, -5 -5" transform="rotate(-90,60,130)"/><rect x="55" y="135" width="10" height="10" transform="rotate(0,60,140)"/><rect x="55" y="145" width="10" height="10" transform="rotate(0,60,150)"/><rect x="55" y="165" width="10" height="10" transform="rotate(0,60,170)"/><path d="M 55 185v 10h 10v -5a 5 5, 0, 0, 0, -5 -5" transform="rotate(-90,60,190)"/><path d="M 55 195v 10h 10v -5a 5 5, 0, 0, 0, -5 -5" transform="rotate(90,60,200)"/><path d="M 65 85v 10h 10v -5a 5 5, 0, 0, 0, -5 -5" transform="rotate(90,70,90)"/><path d="M 65 105v 10h 10v -5a 5 5, 0, 0, 0, -5 -5" transform="rotate(-90,70,110)"/><rect x="65" y="125" width="10" height="10" transform="rotate(0,70,130)"/><path d="M 65 145v 10h 10v -5a 5 5, 0, 0, 0, -5 -5" transform="rotate(90,70,150)"/><path d="M 65 165v 10h 10v -5a 5 5, 0, 0, 0, -5 -5" transform="rotate(90,70,170)"/><rect x="65" y="185" width="10" height="10" transform="rotate(0,70,190)"/><path d="M 65 205v 10h 10v -5a 5 5, 0, 0, 0, -5 -5" transform="rotate(-90,70,210)"/><path d="M 75 105v 10h 10v -5a 5 5, 0, 0, 0, -5 -5" transform="rotate(90,80,110)"/><rect x="75" y="125" width="10" height="10" transform="rotate(0,80,130)"/><path d="M 75 175v 10h 10v -5a 5 5, 0, 0, 0, -5 -5" transform="rotate(-90,80,180)"/><rect x="75" y="185" width="10" height="10" transform="rotate(0,80,190)"/><rect x="75" y="205" width="10" height="10" transform="rotate(0,80,210)"/><path d="M 85 15v 5a 5 5, 0, 0, 0, 5 5h 5v -5a 5 5, 0, 0, 0, -5 -5" transform="rotate(90,90,20)"/><path d="M 85 45v 10h 10v -5a 5 5, 0, 0, 0, -5 -5" transform="rotate(-90,90,50)"/><path d="M 85 65v 5a 5 5, 0, 0, 0, 5 5h 5v -5a 5 5, 0, 0, 0, -5 -5" transform="rotate(90,90,70)"/><path d="M 85 85v 10h 10v -5a 5 5, 0, 0, 0, -5 -5" transform="rotate(-90,90,90)"/><rect x="85" y="95" width="10" height="10" transform="rotate(0,90,100)"/><path d="M 85 125v 10h 10v -5a 5 5, 0, 0, 0, -5 -5" transform="rotate(90,90,130)"/><path d="M 85 145v 10h 10v -5a 5 5, 0, 0, 0, -5 -5" transform="rotate(-90,90,150)"/><rect x="85" y="185" width="10" height="10" transform="rotate(0,90,190)"/><rect x="85" y="195" width="10" height="10" transform="rotate(0,90,200)"/><rect x="85" y="205" width="10" height="10" transform="rotate(0,90,210)"/><rect x="85" y="215" width="10" height="10" transform="rotate(0,90,220)"/><path d="M 85 235v 10h 10v -5a 5 5, 0, 0, 0, -5 -5" transform="rotate(-90,90,240)"/><rect x="85" y="245" width="10" height="10" transform="rotate(0,90,250)"/><path d="M 85 265v 5a 5 5, 0, 0, 0, 5 5h 5v -5a 5 5, 0, 0, 0, -5 -5" transform="rotate(90,90,270)"/><path d="M 95 25v 5a 5 5, 0, 0, 0, 5 5h 5v -5a 5 5, 0, 0, 0, -5 -5" transform="rotate(90,100,30)"/><rect x="95" y="45" width="10" height="10" transform="rotate(0,100,50)"/><path d="M 95 55v 10h 10v -5a 5 5, 0, 0, 0, -5 -5" transform="rotate(90,100,60)"/><rect x="95" y="95" width="10" height="10" transform="rotate(0,100,100)"/><path d="M 95 135v 10h 10v -5a 5 5, 0, 0, 0, -5 -5" transform="rotate(-90,100,140)"/><rect x="95" y="145" width="10" height="10" transform="rotate(0,100,150)"/><rect x="95" y="155" width="10" height="10" transform="rotate(0,100,160)"/><path d="M 95 165v 10h 10v -5a 5 5, 0, 0, 0, -5 -5" transform="rotate(90,100,170)"/><rect x="95" y="195" width="10" height="10" transform="rotate(0,100,200)"/><rect x="95" y="205" width="10" height="10" transform="rotate(0,100,210)"/><rect x="95" y="215" width="10" height="10" transform="rotate(0,100,220)"/><rect x="95" y="225" width="10" height="10" transform="rotate(0,100,230)"/><rect x="95" y="235" width="10" height="10" transform="rotate(0,100,240)"/><path d="M 95 245v 10h 10v -5a 5 5, 0, 0, 0, -5 -5" transform="rotate(90,100,250)"/><path d="M 95 275v 10h 10v -5a 5 5, 0, 0, 0, -5 -5" transform="rotate(-90,100,280)"/><rect x="95" y="285" width="10" height="10" transform="rotate(0,100,290)"/><path d="M 105 5v 10h 10v -5a 5 5, 0, 0, 0, -5 -5" transform="rotate(-90,110,10)"/><rect x="105" y="15" width="10" height="10" transform="rotate(0,110,20)"/><rect x="105" y="45" width="10" height="10" transform="rotate(0,110,50)"/><path d="M 105 65v 5a 5 5, 0, 0, 0, 5 5h 5v -5a 5 5, 0, 0, 0, -5 -5" transform="rotate(90,110,70)"/><rect x="105" y="95" width="10" height="10" transform="rotate(0,110,100)"/><path d="M 105 125v 10h 10v -5a 5 5, 0, 0, 0, -5 -5" transform="rotate(-90,110,130)"/><rect x="105" y="135" width="10" height="10" transform="rotate(0,110,140)"/><rect x="105" y="145" width="10" height="10" transform="rotate(0,110,150)"/><rect x="105" y="155" width="10" height="10" transform="rotate(0,110,160)"/><path d="M 105 175v 10h 10v -5a 5 5, 0, 0, 0, -5 -5" transform="rotate(-90,110,180)"/><rect x="105" y="215" width="10" height="10" transform="rotate(0,110,220)"/><path d="M 105 255v 10h 10v -5a 5 5, 0, 0, 0, -5 -5" transform="rotate(-90,110,260)"/><path d="M 105 265v 10h 10v -5a 5 5, 0, 0, 0, -5 -5" transform="rotate(90,110,270)"/><rect x="105" y="285" width="10" height="10" transform="rotate(0,110,290)"/><rect x="115" y="15" width="10" height="10" transform="rotate(0,120,20)"/><rect x="115" y="25" width="10" height="10" transform="rotate(0,120,30)"/><rect x="115" y="35" width="10" height="10" transform="rotate(0,120,40)"/><rect x="115" y="45" width="10" height="10" transform="rotate(0,120,50)"/><path d="M 115 55v 10h 10v -5a 5 5, 0, 0, 0, -5 -5" transform="rotate(90,120,60)"/><path d="M 115 75v 10h 10v -5a 5 5, 0, 0, 0, -5 -5" transform="rotate(-90,120,80)"/><rect x="115" y="85" width="10" height="10" transform="rotate(0,120,90)"/><path d="M 115 95v 10h 10v -5a 5 5, 0, 0, 0, -5 -5" transform="rotate(90,120,100)"/><path d="M 115 115v 5a 5 5, 0, 0, 0, 5 5h 5v -5a 5 5, 0, 0, 0, -5 -5" transform="rotate(90,120,120)"/><rect x="115" y="135" width="10" height="10" transform="rotate(0,120,140)"/><rect x="115" y="155" width="10" height="10" transform="rotate(0,120,160)"/><rect x="115" y="165" width="10" height="10" transform="rotate(0,120,170)"/><rect x="115" y="175" width="10" height="10" transform="rotate(0,120,180)"/><rect x="115" y="185" width="10" height="10" transform="rotate(0,120,190)"/><rect x="115" y="195" width="10" height="10" transform="rotate(0,120,200)"/><path d="M 115 215v 10h 10v -5a 5 5, 0, 0, 0, -5 -5" transform="rotate(90,120,220)"/><path d="M 115 235v 10h 10v -5a 5 5, 0, 0, 0, -5 -5" transform="rotate(-90,120,240)"/><rect x="115" y="255" width="10" height="10" transform="rotate(0,120,260)"/><path d="M 115 275v 10h 10v -5a 5 5, 0, 0, 0, -5 -5" transform="rotate(-90,120,280)"/><rect x="115" y="285" width="10" height="10" transform="rotate(0,120,290)"/><path d="M 125 45v 10h 10v -5a 5 5, 0, 0, 0, -5 -5" transform="rotate(90,130,50)"/><path d="M 125 65v 5a 5 5, 0, 0, 0, 5 5h 5v -5a 5 5, 0, 0, 0, -5 -5" transform="rotate(90,130,70)"/><rect x="125" y="85" width="10" height="10" transform="rotate(0,130,90)"/><rect x="125" y="135" width="10" height="10" transform="rotate(0,130,140)"/><rect x="125" y="145" width="10" height="10" transform="rotate(0,130,150)"/><rect x="125" y="155" width="10" height="10" transform="rotate(0,130,160)"/><rect x="125" y="165" width="10" height="10" transform="rotate(0,130,170)"/><rect x="125" y="175" width="10" height="10" transform="rotate(0,130,180)"/><rect x="125" y="195" width="10" height="10" transform="rotate(0,130,200)"/><path d="M 125 205v 10h 10v -5a 5 5, 0, 0, 0, -5 -5" transform="rotate(90,130,210)"/><path d="M 125 235v 10h 10v -5a 5 5, 0, 0, 0, -5 -5" transform="rotate(90,130,240)"/><rect x="125" y="255" width="10" height="10" transform="rotate(0,130,260)"/><rect x="125" y="265" width="10" height="10" transform="rotate(0,130,270)"/><rect x="125" y="285" width="10" height="10" transform="rotate(0,130,290)"/><path d="M 135 5v 10h 10v -5a 5 5, 0, 0, 0, -5 -5" transform="rotate(-90,140,10)"/><path d="M 135 15v 10h 10v -5a 5 5, 0, 0, 0, -5 -5" transform="rotate(90,140,20)"/><path d="M 135 55v 5a 5 5, 0, 0, 0, 5 5h 5v -5a 5 5, 0, 0, 0, -5 -5" transform="rotate(90,140,60)"/><path d="M 135 75v 10h 10v -5a 5 5, 0, 0, 0, -5 -5" transform="rotate(-90,140,80)"/><rect x="135" y="85" width="10" height="10" transform="rotate(0,140,90)"/><rect x="135" y="165" width="10" height="10" transform="rotate(0,140,170)"/><path d="M 135 175v 10h 10v -5a 5 5, 0, 0, 0, -5 -5" transform="rotate(90,140,180)"/><path d="M 135 225v 10h 10v -5a 5 5, 0, 0, 0, -5 -5" transform="rotate(-90,140,230)"/><path d="M 135 245v 10h 10v -5a 5 5, 0, 0, 0, -5 -5" transform="rotate(-90,140,250)"/><path d="M 135 265v 10h 10v -5a 5 5, 0, 0, 0, -5 -5" transform="rotate(90,140,270)"/><rect x="135" y="285" width="10" height="10" transform="rotate(0,140,290)"/><path d="M 145 25v 5a 5 5, 0, 0, 0, 5 5h 5v -5a 5 5, 0, 0, 0, -5 -5" transform="rotate(90,150,30)"/><path d="M 145 45v 10h 10v -5a 5 5, 0, 0, 0, -5 -5" transform="rotate(-90,150,50)"/><path d="M 145 65v 10h 10v -5a 5 5, 0, 0, 0, -5 -5" transform="rotate(-90,150,70)"/><rect x="145" y="75" width="10" height="10" transform="rotate(0,150,80)"/><rect x="145" y="85" width="10" height="10" transform="rotate(0,150,90)"/><path d="M 145 145v 10h 10v -5a 5 5, 0, 0, 0, -5 -5" transform="rotate(-90,150,150)"/><rect x="145" y="155" width="10" height="10" transform="rotate(0,150,160)"/><rect x="145" y="165" width="10" height="10" transform="rotate(0,150,170)"/><path d="M 145 185v 5a 5 5, 0, 0, 0, 5 5h 5v -5a 5 5, 0, 0, 0, -5 -5" transform="rotate(90,150,190)"/><path d="M 145 205v 10h 10v -5a 5 5, 0, 0, 0, -5 -5" transform="rotate(-90,150,210)"/><rect x="145" y="215" width="10" height="10" transform="rotate(0,150,220)"/><rect x="145" y="225" width="10" height="10" transform="rotate(0,150,230)"/><path d="M 145 245v 10h 10v -5a 5 5, 0, 0, 0, -5 -5" transform="rotate(90,150,250)"/><path d="M 145 275v 10h 10v -5a 5 5, 0, 0, 0, -5 -5" transform="rotate(-90,150,280)"/><rect x="145" y="285" width="10" height="10" transform="rotate(0,150,290)"/><path d="M 155 5v 5a 5 5, 0, 0, 0, 5 5h 5v -5a 5 5, 0, 0, 0, -5 -5" transform="rotate(90,160,10)"/><rect x="155" y="45" width="10" height="10" transform="rotate(0,160,50)"/><rect x="155" y="75" width="10" height="10" transform="rotate(0,160,80)"/><path d="M 155 85v 10h 10v -5a 5 5, 0, 0, 0, -5 -5" transform="rotate(90,160,90)"/><path d="M 155 115v 10h 10v -5a 5 5, 0, 0, 0, -5 -5" transform="rotate(-90,160,120)"/><rect x="155" y="165" width="10" height="10" transform="rotate(0,160,170)"/><path d="M 155 205v 10h 10v -5a 5 5, 0, 0, 0, -5 -5" transform="rotate(90,160,210)"/><rect x="155" y="225" width="10" height="10" transform="rotate(0,160,230)"/><path d="M 155 235v 10h 10v -5a 5 5, 0, 0, 0, -5 -5" transform="rotate(90,160,240)"/><path d="M 155 255v 5a 5 5, 0, 0, 0, 5 5h 5v -5a 5 5, 0, 0, 0, -5 -5" transform="rotate(90,160,260)"/><rect x="155" y="285" width="10" height="10" transform="rotate(0,160,290)"/><path d="M 165 25v 5a 5 5, 0, 0, 0, 5 5h 5v -5a 5 5, 0, 0, 0, -5 -5" transform="rotate(90,170,30)"/><rect x="165" y="45" width="10" height="10" transform="rotate(0,170,50)"/><rect x="165" y="55" width="10" height="10" transform="rotate(0,170,60)"/><path d="M 165 65v 10h 10v -5a 5 5, 0, 0, 0, -5 -5" transform="rotate(90,170,70)"/><path d="M 165 95v 10h 10v -5a 5 5, 0, 0, 0, -5 -5" transform="rotate(-90,170,100)"/><rect x="165" y="105" width="10" height="10" transform="rotate(0,170,110)"/><rect x="165" y="115" width="10" height="10" transform="rotate(0,170,120)"/><rect x="165" y="125" width="10" height="10" transform="rotate(0,170,130)"/><rect x="165" y="135" width="10" height="10" transform="rotate(0,170,140)"/><path d="M 165 155v 10h 10v -5a 5 5, 0, 0, 0, -5 -5" transform="rotate(-90,170,160)"/><path d="M 165 165v 10h 10v -5a 5 5, 0, 0, 0, -5 -5" transform="rotate(90,170,170)"/><path d="M 165 215v 10h 10v -5a 5 5, 0, 0, 0, -5 -5" transform="rotate(-90,170,220)"/><path d="M 165 275v 10h 10v -5a 5 5, 0, 0, 0, -5 -5" transform="rotate(-90,170,280)"/><rect x="165" y="285" width="10" height="10" transform="rotate(0,170,290)"/><path d="M 175 5v 10h 10v -5a 5 5, 0, 0, 0, -5 -5" transform="rotate(-90,180,10)"/><path d="M 175 15v 10h 10v -5a 5 5, 0, 0, 0, -5 -5" transform="rotate(90,180,20)"/><path d="M 175 35v 10h 10v -5a 5 5, 0, 0, 0, -5 -5" transform="rotate(-90,180,40)"/><rect x="175" y="45" width="10" height="10" transform="rotate(0,180,50)"/><rect x="175" y="55" width="10" height="10" transform="rotate(0,180,60)"/><path d="M 175 105v 10h 10v -5a 5 5, 0, 0, 0, -5 -5" transform="rotate(90,180,110)"/><rect x="175" y="135" width="10" height="10" transform="rotate(0,180,140)"/><path d="M 175 145v 10h 10v -5a 5 5, 0, 0, 0, -5 -5" transform="rotate(90,180,150)"/><path d="M 175 185v 5a 5 5, 0, 0, 0, 5 5h 5v -5a 5 5, 0, 0, 0, -5 -5" transform="rotate(90,180,190)"/><path d="M 175 205v 10h 10v -5a 5 5, 0, 0, 0, -5 -5" transform="rotate(-90,180,210)"/><rect x="175" y="215" width="10" height="10" transform="rotate(0,180,220)"/><rect x="175" y="225" width="10" height="10" transform="rotate(0,180,230)"/><rect x="175" y="235" width="10" height="10" transform="rotate(0,180,240)"/><rect x="175" y="245" width="10" height="10" transform="rotate(0,180,250)"/><rect x="175" y="285" width="10" height="10" transform="rotate(0,180,290)"/><rect x="185" y="45" width="10" height="10" transform="rotate(0,190,50)"/><rect x="185" y="55" width="10" height="10" transform="rotate(0,190,60)"/><rect x="185" y="65" width="10" height="10" transform="rotate(0,190,70)"/><rect x="185" y="75" width="10" height="10" transform="rotate(0,190,80)"/><rect x="185" y="85" width="10" height="10" transform="rotate(0,190,90)"/><path d="M 185 115v 5a 5 5, 0, 0, 0, 5 5h 5v -5a 5 5, 0, 0, 0, -5 -5" transform="rotate(90,190,120)"/><rect x="185" y="135" width="10" height="10" transform="rotate(0,190,140)"/><path d="M 185 155v 10h 10v -5a 5 5, 0, 0, 0, -5 -5" transform="rotate(-90,190,160)"/><rect x="185" y="205" width="10" height="10" transform="rotate(0,190,210)"/><rect x="185" y="245" width="10" height="10" transform="rotate(0,190,250)"/><rect x="185" y="255" width="10" height="10" transform="rotate(0,190,260)"/><path d="M 185 265v 10h 10v -5a 5 5, 0, 0, 0, -5 -5" transform="rotate(90,190,270)"/><path d="M 185 285v 10h 10v -5a 5 5, 0, 0, 0, -5 -5" transform="rotate(90,190,290)"/><path d="M 195 25v 10h 10v -5a 5 5, 0, 0, 0, -5 -5" transform="rotate(-90,200,30)"/><rect x="195" y="35" width="10" height="10" transform="rotate(0,200,40)"/><rect x="195" y="45" width="10" height="10" transform="rotate(0,200,50)"/><path d="M 195 85v 10h 10v -5a 5 5, 0, 0, 0, -5 -5" transform="rotate(90,200,90)"/><rect x="195" y="135" width="10" height="10" transform="rotate(0,200,140)"/><rect x="195" y="155" width="10" height="10" transform="rotate(0,200,160)"/><rect x="195" y="165" width="10" height="10" transform="rotate(0,200,170)"/><rect x="195" y="175" width="10" height="10" transform="rotate(0,200,180)"/><rect x="195" y="205" width="10" height="10" transform="rotate(0,200,210)"/><path d="M 195 235v 10h 10v -5a 5 5, 0, 0, 0, -5 -5" transform="rotate(-90,200,240)"/><rect x="195" y="245" width="10" height="10" transform="rotate(0,200,250)"/><path d="M 195 255v 10h 10v -5a 5 5, 0, 0, 0, -5 -5" transform="rotate(90,200,260)"/><path d="M 195 275v 5a 5 5, 0, 0, 0, 5 5h 5v -5a 5 5, 0, 0, 0, -5 -5" transform="rotate(90,200,280)"/><path d="M 205 5v 10h 10v -5a 5 5, 0, 0, 0, -5 -5" transform="rotate(-90,210,10)"/><path d="M 205 15v 10h 10v -5a 5 5, 0, 0, 0, -5 -5" transform="rotate(90,210,20)"/><rect x="205" y="45" width="10" height="10" transform="rotate(0,210,50)"/><rect x="205" y="55" width="10" height="10" transform="rotate(0,210,60)"/><path d="M 205 65v 10h 10v -5a 5 5, 0, 0, 0, -5 -5" transform="rotate(90,210,70)"/><path d="M 205 105v 10h 10v -5a 5 5, 0, 0, 0, -5 -5" transform="rotate(-90,210,110)"/><path d="M 205 125v 10h 10v -5a 5 5, 0, 0, 0, -5 -5" transform="rotate(-90,210,130)"/><rect x="205" y="135" width="10" height="10" transform="rotate(0,210,140)"/><rect x="205" y="175" width="10" height="10" transform="rotate(0,210,180)"/><rect x="205" y="185" width="10" height="10" transform="rotate(0,210,190)"/><rect x="205" y="195" width="10" height="10" transform="rotate(0,210,200)"/><rect x="205" y="205" width="10" height="10" transform="rotate(0,210,210)"/><rect x="205" y="215" width="10" height="10" transform="rotate(0,210,220)"/><rect x="205" y="225" width="10" height="10" transform="rotate(0,210,230)"/><rect x="205" y="235" width="10" height="10" transform="rotate(0,210,240)"/><rect x="205" y="245" width="10" height="10" transform="rotate(0,210,250)"/><path d="M 205 285v 10h 10v -5a 5 5, 0, 0, 0, -5 -5" transform="rotate(-90,210,290)"/><path d="M 215 85v 10h 10v -5a 5 5, 0, 0, 0, -5 -5" transform="rotate(-90,220,90)"/><rect x="215" y="95" width="10" height="10" transform="rotate(0,220,100)"/><rect x="215" y="105" width="10" height="10" transform="rotate(0,220,110)"/><rect x="215" y="125" width="10" height="10" transform="rotate(0,220,130)"/><rect x="215" y="135" width="10" height="10" transform="rotate(0,220,140)"/><rect x="215" y="145" width="10" height="10" transform="rotate(0,220,150)"/><rect x="215" y="155" width="10" height="10" transform="rotate(0,220,160)"/><path d="M 215 165v 10h 10v -5a 5 5, 0, 0, 0, -5 -5" transform="rotate(90,220,170)"/><rect x="215" y="185" width="10" height="10" transform="rotate(0,220,190)"/><rect x="215" y="195" width="10" height="10" transform="rotate(0,220,200)"/><rect x="215" y="205" width="10" height="10" transform="rotate(0,220,210)"/><rect x="215" y="245" width="10" height="10" transform="rotate(0,220,250)"/><path d="M 215 265v 5a 5 5, 0, 0, 0, 5 5h 5v -5a 5 5, 0, 0, 0, -5 -5" transform="rotate(90,220,270)"/><rect x="215" y="285" width="10" height="10" transform="rotate(0,220,290)"/><rect x="225" y="105" width="10" height="10" transform="rotate(0,230,110)"/><rect x="225" y="115" width="10" height="10" transform="rotate(0,230,120)"/><rect x="225" y="125" width="10" height="10" transform="rotate(0,230,130)"/><path d="M 225 155v 10h 10v -5a 5 5, 0, 0, 0, -5 -5" transform="rotate(90,230,160)"/><path d="M 225 175v 10h 10v -5a 5 5, 0, 0, 0, -5 -5" transform="rotate(-90,230,180)"/><rect x="225" y="195" width="10" height="10" transform="rotate(0,230,200)"/><rect x="225" y="205" width="10" height="10" transform="rotate(0,230,210)"/><path d="M 225 225v 5a 5 5, 0, 0, 0, 5 5h 5v -5a 5 5, 0, 0, 0, -5 -5" transform="rotate(90,230,230)"/><rect x="225" y="245" width="10" height="10" transform="rotate(0,230,250)"/><path d="M 225 285v 10h 10v -5a 5 5, 0, 0, 0, -5 -5" transform="rotate(90,230,290)"/><rect x="235" y="115" width="10" height="10" transform="rotate(0,240,120)"/><rect x="235" y="125" width="10" height="10" transform="rotate(0,240,130)"/><rect x="235" y="135" width="10" height="10" transform="rotate(0,240,140)"/><rect x="235" y="145" width="10" height="10" transform="rotate(0,240,150)"/><path d="M 235 165v 10h 10v -5a 5 5, 0, 0, 0, -5 -5" transform="rotate(-90,240,170)"/><rect x="235" y="175" width="10" height="10" transform="rotate(0,240,180)"/><rect x="235" y="185" width="10" height="10" transform="rotate(0,240,190)"/><rect x="235" y="195" width="10" height="10" transform="rotate(0,240,200)"/><rect x="235" y="205" width="10" height="10" transform="rotate(0,240,210)"/><rect x="235" y="245" width="10" height="10" transform="rotate(0,240,250)"/><path d="M 235 255v 10h 10v -5a 5 5, 0, 0, 0, -5 -5" transform="rotate(90,240,260)"/><path d="M 245 85v 10h 10v -5a 5 5, 0, 0, 0, -5 -5" transform="rotate(-90,250,90)"/><path d="M 245 95v 10h 10v -5a 5 5, 0, 0, 0, -5 -5" transform="rotate(90,250,100)"/><rect x="245" y="115" width="10" height="10" transform="rotate(0,250,120)"/><rect x="245" y="125" width="10" height="10" transform="rotate(0,250,130)"/><rect x="245" y="135" width="10" height="10" transform="rotate(0,250,140)"/><path d="M 245 145v 10h 10v -5a 5 5, 0, 0, 0, -5 -5" transform="rotate(90,250,150)"/><rect x="245" y="185" width="10" height="10" transform="rotate(0,250,190)"/><rect x="245" y="195" width="10" height="10" transform="rotate(0,250,200)"/><rect x="245" y="205" width="10" height="10" transform="rotate(0,250,210)"/><rect x="245" y="215" width="10" height="10" transform="rotate(0,250,220)"/><rect x="245" y="225" width="10" height="10" transform="rotate(0,250,230)"/><rect x="245" y="235" width="10" height="10" transform="rotate(0,250,240)"/><path d="M 245 245v 10h 10v -5a 5 5, 0, 0, 0, -5 -5" transform="rotate(90,250,250)"/><path d="M 245 275v 10h 10v -5a 5 5, 0, 0, 0, -5 -5" transform="rotate(-90,250,280)"/><path d="M 245 285v 10h 10v -5a 5 5, 0, 0, 0, -5 -5" transform="rotate(90,250,290)"/><rect x="255" y="115" width="10" height="10" transform="rotate(0,260,120)"/><rect x="255" y="135" width="10" height="10" transform="rotate(0,260,140)"/><path d="M 255 165v 10h 10v -5a 5 5, 0, 0, 0, -5 -5" transform="rotate(-90,260,170)"/><path d="M 255 175v 10h 10v -5a 5 5, 0, 0, 0, -5 -5" transform="rotate(90,260,180)"/><path d="M 255 235v 10h 10v -5a 5 5, 0, 0, 0, -5 -5" transform="rotate(90,260,240)"/><path d="M 255 265v 10h 10v -5a 5 5, 0, 0, 0, -5 -5" transform="rotate(-90,260,270)"/><rect x="255" y="275" width="10" height="10" transform="rotate(0,260,280)"/><path d="M 265 105v 10h 10v -5a 5 5, 0, 0, 0, -5 -5" transform="rotate(-90,270,110)"/><rect x="265" y="115" width="10" height="10" transform="rotate(0,270,120)"/><rect x="265" y="125" width="10" height="10" transform="rotate(0,270,130)"/><rect x="265" y="135" width="10" height="10" transform="rotate(0,270,140)"/><rect x="265" y="145" width="10" height="10" transform="rotate(0,270,150)"/><path d="M 265 165v 10h 10v -5a 5 5, 0, 0, 0, -5 -5" transform="rotate(90,270,170)"/><path d="M 265 185v 10h 10v -5a 5 5, 0, 0, 0, -5 -5" transform="rotate(-90,270,190)"/><rect x="265" y="195" width="10" height="10" transform="rotate(0,270,200)"/><rect x="265" y="205" width="10" height="10" transform="rotate(0,270,210)"/><rect x="265" y="215" width="10" height="10" transform="rotate(0,270,220)"/><path d="M 265 255v 10h 10v -5a 5 5, 0, 0, 0, -5 -5" transform="rotate(-90,270,260)"/><rect x="265" y="275" width="10" height="10" transform="rotate(0,270,280)"/><rect x="265" y="285" width="10" height="10" transform="rotate(0,270,290)"/><path d="M 275 85v 10h 10v -5a 5 5, 0, 0, 0, -5 -5" transform="rotate(-90,280,90)"/><rect x="275" y="95" width="10" height="10" transform="rotate(0,280,100)"/><rect x="275" y="115" width="10" height="10" transform="rotate(0,280,120)"/><path d="M 275 125v 10h 10v -5a 5 5, 0, 0, 0, -5 -5" transform="rotate(90,280,130)"/><path d="M 275 145v 10h 10v -5a 5 5, 0, 0, 0, -5 -5" transform="rotate(90,280,150)"/><path d="M 275 175v 10h 10v -5a 5 5, 0, 0, 0, -5 -5" transform="rotate(-90,280,180)"/><rect x="275" y="195" width="10" height="10" transform="rotate(0,280,200)"/><rect x="275" y="205" width="10" height="10" transform="rotate(0,280,210)"/><rect x="275" y="215" width="10" height="10" transform="rotate(0,280,220)"/><rect x="275" y="225" width="10" height="10" transform="rotate(0,280,230)"/><path d="M 275 235v 10h 10v -5a 5 5, 0, 0, 0, -5 -5" transform="rotate(90,280,240)"/><rect x="275" y="255" width="10" height="10" transform="rotate(0,280,260)"/><rect x="275" y="275" width="10" height="10" transform="rotate(0,280,280)"/><path d="M 275 285v 10h 10v -5a 5 5, 0, 0, 0, -5 -5" transform="rotate(90,280,290)"/><rect x="285" y="95" width="10" height="10" transform="rotate(0,290,100)"/><rect x="285" y="105" width="10" height="10" transform="rotate(0,290,110)"/><path d="M 285 115v 10h 10v -5a 5 5, 0, 0, 0, -5 -5" transform="rotate(90,290,120)"/><path d="M 285 135v 5a 5 5, 0, 0, 0, 5 5h 5v -5a 5 5, 0, 0, 0, -5 -5" transform="rotate(90,290,140)"/><path d="M 285 155v 5a 5 5, 0, 0, 0, 5 5h 5v -5a 5 5, 0, 0, 0, -5 -5" transform="rotate(90,290,160)"/><path d="M 285 175v 10h 10v -5a 5 5, 0, 0, 0, -5 -5" transform="rotate(90,290,180)"/><rect x="285" y="205" width="10" height="10" transform="rotate(0,290,210)"/><path d="M 285 215v 10h 10v -5a 5 5, 0, 0, 0, -5 -5" transform="rotate(90,290,220)"/><path d="M 285 245v 10h 10v -5a 5 5, 0, 0, 0, -5 -5" transform="rotate(-90,290,250)"/><rect x="285" y="255" width="10" height="10" transform="rotate(0,290,260)"/><rect x="285" y="265" width="10" height="10" transform="rotate(0,290,270)"/><path d="M 285 275v 10h 10v -5a 5 5, 0, 0, 0, -5 -5" transform="rotate(90,290,280)"/></g><g class="corners-square-color-0-0"><path clip-rule="evenodd" d="M 5 30v 20a 25 25, 0, 0, 0, 25 25h 20a 25 25, 0, 0, 0, 25 -25v -20a 25 25, 0, 0, 0, -25 -25h -20a 25 25, 0, 0, 0, -25 25M 30 15h 20a 15 15, 0, 0, 1, 15 15v 20a 15 15, 0, 0, 1, -15 15h -20a 15 15, 0, 0, 1, -15 -15v -20a 15 15, 0, 0, 1, 15 -15" transform="rotate(0,40,40)"/></g><g class="corners-dot-color-0-0"><circle cx="40" cy="40" r="15" transform="rotate(0,40,40)"/></g><g class="corners-square-color-1-0"><path clip-rule="evenodd" d="M 225 30v 20a 25 25, 0, 0, 0, 25 25h 20a 25 25, 0, 0, 0, 25 -25v -20a 25 25, 0, 0, 0, -25 -25h -20a 25 25, 0, 0, 0, -25 25M 250 15h 20a 15 15, 0, 0, 1, 15 15v 20a 15 15, 0, 0, 1, -15 15h -20a 15 15, 0, 0, 1, -15 -15v -20a 15 15, 0, 0, 1, 15 -15" transform="rotate(90,260,40)"/></g><g class="corners-dot-color-1-0"><circle cx="260" cy="40" r="15" transform="rotate(90,260,40)"/></g><g class="corners-square-color-0-1"><path clip-rule="evenodd" d="M 5 250v 20a 25 25, 0, 0, 0, 25 25h 20a 25 25, 0, 0, 0, 25 -25v -20a 25 25, 0, 0, 0, -25 -25h -20a 25 25, 0, 0, 0, -25 25M 30 235h 20a 15 15, 0, 0, 1, 15 15v 20a 15 15, 0, 0, 1, -15 15h -20a 15 15, 0, 0, 1, -15 -15v -20a 15 15, 0, 0, 1, 15 -15" transform="rotate(-90,40,260)"/></g><g class="corners-dot-color-0-1"><circle cx="40" cy="260" r="15" transform="rotate(-90,40,260)"/></g></svg></g></svg></svg>